<svg xmlns="http://www.w3.org/2000/svg" width="64" height="64"><path style="line-height:normal;text-indent:0;text-align:start;text-decoration-line:none;text-decoration-style:solid;text-decoration-color:#000;text-transform:none;block-progression:tb;white-space:normal;isolation:auto;mix-blend-mode:normal;solid-color:#000;solid-opacity:1" d="M 19.009766 1.5195312 L 19.009766 1.5234375 L 19 1.5234375 L 12.669922 1.9980469 L 12.632812 1.9980469 L 12.621094 2 L 5.5 2 C 5.2238691 2.0000276 5.0000276 2.2238691 5 2.5 L 5 3.1015625 L 3.9296875 3.2539062 C 3.657064 3.2932167 3.4675646 3.5455914 3.5058594 3.8183594 L 5 14.230469 L 5 27.5 C 5.0000276 27.776131 5.2238691 27.999972 5.5 28 L 6.9765625 28 L 7.0566406 28.560547 C 7.0959506 28.83317 7.3483258 29.02267 7.6210938 28.984375 L 12.453125 28.291016 L 12.875 28.771484 A 0.50005 0.50005 0 0 0 13.597656 28.802734 L 14.423828 28.007812 L 14.478516 28 L 25.5 28 C 25.776131 27.999972 25.999972 27.776131 26 27.5 L 26 26.345703 L 27.417969 26.142578 C 27.690592 26.103268 27.880092 25.850893 27.841797 25.578125 L 26.544922 16.535156 C 26.64146 16.4649 26.738459 16.394347 26.828125 16.304688 L 27.105469 16.027344 C 27.44116 15.691644 27.715152 15.312569 27.894531 14.917969 L 29.150391 12.154297 C 29.266343 11.898997 29.320211 11.529059 29.046875 11.255859 C 28.910207 11.119259 28.750339 11.066247 28.591797 11.060547 C 28.433256 11.050547 28.276041 11.096297 28.148438 11.154297 L 26 12.128906 L 26 7.5351562 C 26.000412 7.5234412 26.000412 7.5117151 26 7.5 L 26 7.4863281 C 25.999762 7.4745901 25.999205 7.4628639 25.998047 7.4511719 L 25.996094 7.4355469 C 25.992494 7.4077589 25.986696 7.3803186 25.978516 7.3535156 L 25.974609 7.3398438 C 25.970409 7.3286157 25.965908 7.3175406 25.960938 7.3066406 L 25.958984 7.3046875 L 25.955078 7.2929688 C 25.950278 7.2823737 25.945033 7.2719508 25.939453 7.2617188 L 25.931641 7.2480469 L 25.929688 7.2441406 C 25.921788 7.2313966 25.913307 7.2190132 25.904297 7.2070312 C 25.897497 7.1976712 25.890283 7.1885505 25.882812 7.1796875 L 25.873047 7.1679688 C 25.866747 7.1606188 25.860236 7.1534554 25.853516 7.1464844 L 20.853516 2.1464844 C 20.760152 2.052717 20.6326 2.0000254 20.5 2 L 20.492188 2 L 20.154297 2 L 19.253906 1.5683594 C 19.177946 1.5317604 19.093961 1.5149633 19.009766 1.5195312 z M 6 3 L 20 3 L 20 7.5 C 20.000028 7.7761309 20.223869 7.9999724 20.5 8 L 25 8 L 25 12.619141 C 24.77906 12.75375 24.565758 12.910815 24.373047 13.103516 L 23.546875 13.927734 C 23.526326 13.948265 23.516384 13.976188 23.498047 13.998047 L 7 13.998047 L 7 14.498047 L 7 15 L 22.515625 15 L 20.367188 17 L 7 17 L 7 18 L 19.291016 18 L 17.142578 20 L 7 20 L 7 21 L 16.068359 21 L 13.921875 22.998047 L 7 22.998047 L 7 23.498047 L 7 24 L 12.845703 24 L 10.914062 25.796875 A 0.50005 0.50005 0 0 0 10.878906 26.492188 L 11.324219 27 L 7.4082031 27 L 6 27 L 6 14.201172 L 6 3.5332031 L 6 3 z M 21 3.7070312 L 24.292969 7 L 21 7 L 21 3.7070312 z M 5 4.1054688 L 5 7.1992188 L 4.5644531 4.1679688 L 5 4.1054688 z M 7 8 L 7 8.5 L 7 9 L 7.5 9 L 15.5 9 L 16 9 L 16 8 L 15.5 8 L 7.5 8 L 7 8 z M 7 11 L 7 12 L 23.5 12 L 23.5 11 L 7 11 z M 27.96875 12.333984 L 26.982422 14.503906 C 26.864323 14.763706 26.6577 15.061113 26.398438 15.320312 L 26.121094 15.597656 C 25.989233 15.729456 25.845793 15.813556 25.755859 15.847656 L 24.398438 14.490234 L 25.080078 13.810547 C 25.277125 13.613547 25.502095 13.454088 25.693359 13.367188 L 27.96875 12.333984 z M 23.712891 15.253906 L 24.943359 16.484375 L 14.945312 26.113281 L 13.583984 24.679688 L 23.712891 15.253906 z M 25 17.818359 L 25 25.914062 L 25 27 L 15.46875 27 L 18.582031 24 L 24 24 L 24 22.998047 L 19.623047 22.998047 L 21.697266 21 L 23.5 21 L 23.5 20 L 22.734375 20 L 25 17.818359 z M 26 19.773438 L 26.78125 25.224609 L 26 25.337891 L 26 19.773438 z M 12.851562 25.361328 L 14.226562 26.806641 L 13.28125 27.716797 L 11.951172 26.199219 L 12.851562 25.361328 z " color="#000" enable-background="accumulate" font-family="sans-serif" font-weight="400" overflow="visible"/></svg>